<?xml version="1.0" encoding="UTF-8"?>
<svg id="Layer_2" data-name="Layer 2" xmlns="http://www.w3.org/2000/svg" viewBox="0 0 549.67 376.97">
  <defs>
    <style>
      .cls-1 {
        opacity: .66;
      }

      .cls-1, .cls-2, .cls-3 {
        fill: #70db21;
        fill-rule: evenodd;
        stroke-width: 0px;
      }

      .cls-2 {
        opacity: .44;
      }
    </style>
  </defs>
  <g id="Livello_1" data-name="Livello 1">
    <g>
      <polygon class="cls-3" points="549.67 265.34 496.38 357.56 345 95.23 242.66 272.44 214.51 321.22 193.47 357.56 140.18 265.34 200.58 160.82 293.35 0 396.64 0 469.88 126.93 469.88 127.07 479.58 143.87 549.67 265.34"/>
      <polygon class="cls-2" points="106.57 245.8 0 245.8 68.59 127.07 68.59 126.93 96.74 78.29 141.96 0 248.4 0 214.51 58.75 185.82 108.35 166.83 141.28 166.96 141.28 106.57 245.8"/>
      <polygon class="cls-1" points="106.57 284.88 159.72 376.97 53.15 376.97 0 284.88 106.57 284.88"/>
      <polygon class="cls-1" points="345 173.11 462.77 376.97 356.2 376.97 291.71 265.34 345 173.11"/>
    </g>
  </g>
</svg>